<?xml version="1.0" standalone="no"?>
<!DOCTYPE svg PUBLIC "-//W3C//DTD SVG 20010904//EN"
 "http://www.w3.org/TR/2001/REC-SVG-20010904/DTD/svg10.dtd">
<svg version="1.0" xmlns="http://www.w3.org/2000/svg"
 width="700.000000pt" height="700.000000pt" viewBox="0 0 700.000000 700.000000"
 preserveAspectRatio="xMidYMid meet">
<metadata>
Created by potrace 1.11, written by Peter Selinger 2001-2013
</metadata>
<g transform="translate(0.000000,700.000000) scale(0.100000,-0.100000)"
fill="#000000" stroke="none">
<path d="M2500 5902 c-168 -12 -374 -55 -537 -112 -102 -36 -278 -119 -337
-158 -23 -16 -48 -31 -57 -34 -41 -16 -235 -173 -330 -268 -205 -205 -346
-419 -449 -684 -39 -100 -94 -296 -104 -372 -3 -21 -8 -52 -10 -69 -2 -16 -7
-68 -11 -115 -3 -47 -8 -92 -11 -100 -2 -8 -38 -36 -78 -63 -163 -106 -328
-290 -424 -476 -103 -197 -144 -362 -147 -585 -5 -377 130 -705 398 -965 67
-66 233 -190 254 -191 6 0 13 -3 15 -8 6 -14 216 -106 268 -117 8 -1 33 -8 55
-14 96 -25 239 -38 460 -40 129 -1 235 0 235 3 0 3 -17 52 -39 108 -21 57 -51
154 -66 216 l-27 112 -157 0 c-86 0 -185 5 -221 10 -343 54 -616 298 -712 637
-18 63 -22 104 -23 218 0 77 3 154 6 170 68 321 299 581 597 671 l63 19 -7 85
c-36 401 66 766 300 1079 202 270 517 479 841 560 141 35 270 49 414 45 128
-3 162 -6 229 -19 15 -3 43 -8 62 -11 68 -11 268 -83 356 -128 116 -60 140
-74 201 -118 165 -118 314 -277 422 -449 47 -76 120 -229 145 -306 l17 -52 47
34 c286 205 688 233 1009 71 179 -90 337 -246 427 -422 58 -114 80 -181 101
-311 3 -18 11 -33 18 -34 7 0 30 -2 52 -4 200 -14 388 -95 532 -229 126 -118
211 -257 255 -418 33 -120 33 -339 0 -450 -104 -353 -364 -580 -732 -642 -14
-3 -149 -5 -301 -5 l-276 -1 -27 -112 c-15 -62 -45 -160 -67 -217 -21 -58 -39
-106 -39 -109 0 -2 170 -2 378 1 411 5 463 11 634 68 236 78 458 234 612 429
59 74 106 145 106 159 0 5 3 11 8 13 25 11 133 293 146 384 4 21 10 64 15 94
14 88 5 359 -15 422 -3 10 -8 30 -10 45 -12 64 -69 214 -115 303 -158 301
-433 535 -751 639 -60 20 -68 26 -78 57 -7 20 -30 70 -53 112 -177 336 -476
591 -821 701 -81 26 -117 35 -231 56 -131 25 -402 13 -544 -24 l-68 -18 -64
89 c-200 284 -456 501 -763 649 -121 57 -296 121 -391 141 -144 30 -166 33
-270 44 -64 7 -257 11 -315 6z"/>
<path d="M3281 3934 c0 -119 -2 -218 -3 -219 -2 -2 -28 -5 -58 -8 -204 -21
-431 -106 -624 -234 -117 -77 -289 -244 -356 -343 -24 -36 -46 -67 -49 -70
-16 -14 -104 -191 -130 -262 -25 -65 -60 -191 -67 -238 -3 -19 -8 -46 -11 -60
-12 -56 -11 -338 2 -415 85 -518 427 -938 912 -1120 78 -30 199 -62 262 -70
23 -3 57 -8 75 -11 17 -3 85 -6 151 -6 538 0 1014 287 1265 765 72 135 128
308 145 442 3 22 7 55 9 73 5 39 8 117 7 193 l-1 55 -219 0 -220 0 1 -100 c2
-264 -96 -510 -277 -691 -85 -86 -106 -102 -190 -156 -104 -65 -256 -119 -385
-136 -59 -8 -212 -8 -271 0 -353 48 -670 312 -789 657 -45 133 -63 311 -45
450 28 206 129 405 284 560 149 149 286 223 499 270 l82 18 1 -56 c0 -32 0
-128 0 -215 -1 -146 1 -157 17 -148 27 15 847 631 849 639 2 4 -77 67 -175
140 -97 73 -290 219 -429 323 -139 104 -254 189 -257 189 -3 0 -5 -97 -5 -216z"/>
</g>
</svg>
